<?xml version="1.0" standalone="no"?>
<!DOCTYPE svg PUBLIC "-//W3C//DTD SVG 20010904//EN"
 "http://www.w3.org/TR/2001/REC-SVG-20010904/DTD/svg10.dtd">
<svg version="1.0" xmlns="http://www.w3.org/2000/svg"
 width="128.000000pt" height="128.000000pt" viewBox="0 0 128.000000 128.000000"
 preserveAspectRatio="xMidYMid meet">

<g transform="translate(0.000000,128.000000) scale(0.100000,-0.100000)"
fill="#000000" stroke="none">
<path d="M663 1171 c35 -5 56 -16 79 -39 l32 -32 -29 -30 c-27 -28 -33 -30
-104 -30 -66 1 -80 4 -103 25 -16 13 -28 27 -28 32 0 4 15 23 33 42 17 18 26
30 18 26 -8 -4 -49 -7 -92 -6 -80 2 -85 0 -79 -38 1 -8 11 -22 23 -32 l22 -17
-28 -29 c-15 -16 -25 -31 -23 -34 2 -2 -40 -3 -95 -1 -71 2 -99 0 -99 -8 0 -8
11 -11 29 -8 26 4 29 2 20 -14 -5 -10 -12 -18 -15 -18 -3 0 -2 5 2 12 5 7 3 8
-5 4 -7 -5 -10 -15 -7 -23 4 -9 2 -11 -5 -7 -7 4 -10 1 -7 -7 7 -20 -11 -51
-24 -43 -8 5 -9 1 -5 -10 5 -11 3 -15 -5 -10 -8 5 -9 2 -5 -10 4 -10 1 -19 -8
-22 -8 -4 -12 -10 -9 -15 3 -5 0 -9 -6 -9 -6 0 -5 -13 5 -36 8 -20 12 -41 8
-47 -3 -5 -1 -7 4 -4 13 8 26 -20 16 -35 -3 -6 -1 -8 5 -4 10 6 23 -17 21 -38
0 -5 4 -12 9 -15 16 -11 61 -104 55 -114 -4 -6 -1 -7 7 -2 10 6 12 4 7 -9 -4
-9 -3 -15 2 -12 13 8 24 -25 12 -37 -12 -12 -55 69 -45 86 4 7 3 9 -1 4 -5 -4
-36 44 -70 108 -34 63 -65 112 -69 108 -5 -5 12 34 38 84 25 51 46 101 45 110
0 10 -22 -26 -50 -79 -27 -54 -53 -98 -57 -98 -9 0 -62 83 -62 97 0 6 20 53
45 106 25 53 45 103 45 112 0 11 12 15 46 15 41 0 45 -2 34 -16 -8 -8 -23 -20
-34 -25 -21 -10 -21 -10 -1 6 l20 17 -20 -4 c-13 -2 -30 -23 -47 -58 -14 -30
-31 -61 -37 -67 -24 -27 -30 -60 -15 -82 19 -27 38 -27 65 0 16 16 20 29 16
52 -11 69 33 148 63 112 9 -10 32 -15 75 -15 49 0 66 4 80 20 16 18 17 23 5
45 -16 30 -40 38 -101 32 -41 -3 -41 -4 12 -5 42 -2 60 -7 74 -22 17 -19 17
-21 0 -40 -26 -28 -114 -28 -140 0 -14 15 -15 23 -6 33 16 20 4 27 -45 27
l-44 0 -50 -106 c-27 -59 -50 -118 -50 -132 0 -29 58 -132 75 -132 6 0 24 -26
41 -57 l31 -58 -29 -30 c-15 -16 -28 -35 -28 -43 0 -7 14 -36 30 -65 17 -30
27 -56 24 -59 -9 -9 26 -69 36 -63 10 6 52 -69 44 -78 -8 -8 28 -67 37 -61 4
2 16 -12 28 -31 18 -32 25 -35 65 -35 43 0 58 -12 61 -52 0 -3 3 -9 6 -13 10
-9 264 -16 339 -9 l65 6 25 49 c91 175 103 194 111 174 14 -35 11 -47 -11 -40
-11 4 -20 2 -20 -4 0 -6 5 -11 10 -11 6 0 10 -7 10 -15 0 -8 -9 -15 -20 -15
-10 0 -24 -9 -30 -20 -7 -14 -7 -20 0 -20 5 0 10 5 10 10 0 6 9 10 20 10 12 0
28 13 40 32 24 40 25 56 5 78 -14 15 -14 21 0 53 16 40 26 45 44 24 13 -16 5
-27 -21 -27 -11 0 -16 -4 -13 -10 23 -38 97 49 76 88 -6 11 -7 22 -3 26 3 4 1
11 -6 15 -10 6 -9 17 8 49 12 24 27 39 33 35 6 -3 7 -1 3 5 -9 16 70 159 92
165 9 2 32 30 51 61 38 64 41 50 -36 211 -25 55 -42 81 -43 67 0 -12 14 -51
31 -85 17 -34 24 -55 15 -47 -9 9 -28 40 -44 70 -19 39 -33 55 -47 55 -11 1
-27 5 -35 10 -11 8 -4 11 30 15 37 5 26 7 -58 14 -100 8 -104 7 -128 -15 -30
-28 -30 -40 -1 -67 32 -30 116 -31 142 -2 10 11 22 20 27 20 17 0 47 -88 41
-123 -4 -27 0 -40 16 -56 11 -11 26 -21 33 -21 6 0 3 6 -8 14 -14 11 -19 27
-20 68 0 29 -8 70 -17 91 -10 20 -15 37 -12 37 4 0 16 -21 27 -47 12 -27 30
-60 41 -75 13 -18 18 -36 14 -55 -5 -26 -4 -26 9 -8 8 10 12 28 9 39 -3 12 2
6 12 -11 16 -32 16 -34 -10 -80 -14 -26 -30 -49 -36 -51 -6 -2 -32 40 -59 94
-29 58 -52 92 -56 86 -4 -7 11 -46 34 -87 23 -41 38 -80 34 -86 -4 -7 -3 -9 3
-6 6 4 14 0 17 -9 3 -8 2 -13 -2 -10 -4 2 -27 -33 -52 -79 -24 -46 -48 -81
-53 -78 -6 3 -7 1 -3 -5 9 -15 -13 -59 -30 -59 -17 0 -19 -6 30 90 22 42 43
74 48 71 4 -3 5 3 1 12 -4 12 -3 15 5 10 8 -5 10 -1 5 10 -4 10 -2 15 4 11 21
-13 6 61 -24 113 -17 30 -28 61 -25 69 3 8 0 11 -6 7 -12 -7 -35 28 -25 38 3
3 15 6 25 6 10 0 18 5 18 10 0 6 -37 10 -90 10 -86 0 -91 1 -122 30 l-33 30
23 20 c15 12 22 28 20 42 -3 22 -8 23 -79 24 -42 1 -85 7 -97 13 -11 6 -38 10
-59 10 -37 -2 -36 -2 10 -8z m-233 -25 c0 -2 -7 -6 -15 -10 -8 -3 -15 -1 -15
4 0 6 7 10 15 10 8 0 15 -2 15 -4z m92 -19 c-28 -30 -28 -38 3 -67 13 -12 22
-26 20 -30 -2 -4 13 -14 33 -24 l37 -17 -25 20 -25 21 75 -1 75 0 -27 -20
c-16 -11 -28 -29 -28 -40 0 -24 -37 -26 -43 -1 -4 13 -5 11 -6 -5 -1 -19 4
-23 29 -23 25 0 30 4 30 25 0 21 24 45 44 45 3 0 6 -18 6 -40 l0 -40 -80 0
-80 0 0 40 c0 44 -4 48 -26 25 -14 -13 -14 -15 0 -15 11 0 16 -9 16 -29 0 -25
5 -30 28 -34 25 -4 25 -4 -5 -6 -18 0 -33 4 -33 9 0 6 -28 10 -64 10 -55 0
-66 3 -79 23 -12 19 -12 24 0 35 7 7 11 17 9 21 -3 5 7 19 22 32 l27 24 -25
-29 c-24 -27 -24 -28 -2 -15 12 8 22 17 22 21 0 5 8 9 18 9 16 1 16 2 0 6 -10
2 -18 9 -18 15 0 5 -10 18 -22 28 l-22 17 30 16 c16 9 47 16 68 17 l39 0 -21
-23z m325 5 l22 -17 -23 -26 c-12 -14 -29 -29 -37 -32 -10 -4 -9 -6 4 -6 9 -1
17 -5 17 -11 0 -5 5 -10 11 -10 8 0 7 6 -2 18 -11 14 -10 14 8 -2 13 -10 20
-22 18 -26 -2 -4 4 -15 15 -25 18 -16 18 -19 3 -41 -13 -21 -23 -24 -79 -24
-36 0 -64 -4 -64 -10 0 -5 -15 -9 -32 -9 -31 2 -31 2 -5 6 22 4 27 10 28 34 2
47 3 50 21 63 10 7 15 16 11 19 -10 11 -23 8 -20 -4 1 -6 -5 -14 -13 -16 -13
-4 -13 -3 0 6 11 8 12 11 2 11 -8 0 0 12 17 26 37 31 38 40 9 71 l-21 23 44 0
c26 0 53 -7 66 -18z m33 8 c0 -5 -7 -7 -15 -4 -8 4 -15 8 -15 10 0 2 7 4 15 4
8 0 15 -4 15 -10z m191 -26 c17 -15 17 -18 2 -40 -13 -20 -23 -24 -68 -24 -39
0 -56 5 -70 20 -17 19 -17 21 0 40 23 26 109 28 136 4z m-946 -91 c-10 -24
-14 -51 -10 -74 5 -27 2 -41 -11 -53 -41 -42 -58 18 -20 72 14 20 30 49 35 65
6 15 13 27 16 27 3 0 -2 -17 -10 -37z m201 -40 c-5 -15 -4 -15 9 1 25 32 17 6
-15 -51 -16 -29 -30 -56 -30 -60 0 -5 14 16 31 45 17 28 34 52 39 52 4 0 15
-11 24 -25 15 -22 23 -25 81 -25 36 0 65 -4 65 -9 0 -5 14 -12 30 -16 19 -4
30 -13 30 -24 0 -9 5 -22 12 -29 8 -8 8 -15 -2 -27 -7 -8 -8 -15 -2 -15 15 0
24 32 12 44 -5 5 -10 18 -10 28 0 14 8 18 35 18 37 0 59 -25 35 -40 -6 -4 -10
-16 -8 -26 2 -14 12 -19 38 -20 l35 -2 -32 5 c-20 2 -33 10 -33 19 0 8 5 14
10 14 6 0 10 11 10 25 0 20 6 27 30 32 17 3 30 9 30 14 0 5 28 9 63 9 62 0 63
1 96 43 20 26 31 34 27 20 -4 -12 -2 -24 3 -28 7 -3 8 0 5 9 -14 37 7 11 43
-51 49 -86 47 -83 30 -83 -8 0 -21 -8 -28 -17 -11 -15 -11 -16 1 -5 8 6 22 12
32 12 30 0 21 35 -27 106 -25 36 -45 67 -45 70 0 2 16 4 36 4 19 0 33 -4 29
-9 -3 -5 1 -16 9 -24 8 -8 12 -17 9 -21 -4 -3 -2 -6 3 -6 5 0 17 -13 27 -28
16 -28 15 -31 -17 -98 -76 -159 -356 -661 -356 -639 0 6 -22 10 -50 10 -27 0
-50 -4 -50 -9 0 -18 -61 86 -180 304 -167 307 -222 419 -198 404 8 -5 9 -2 5
10 -4 10 -3 15 3 11 9 -6 14 8 11 28 0 4 4 7 10 7 5 0 8 4 5 9 -3 5 1 12 10
15 9 4 14 13 10 21 -4 12 3 15 30 15 30 0 35 -3 30 -17z m337 -70 c-7 -2 -21
-2 -30 0 -10 3 -4 5 12 5 17 0 24 -2 18 -5z m-439 -119 c12 -21 37 -68 57
-104 20 -36 56 -101 79 -145 24 -44 46 -84 50 -90 4 -5 38 -68 75 -140 64
-123 105 -185 105 -157 0 8 17 12 50 12 33 0 50 -4 50 -12 0 -28 35 29 173
282 225 413 217 400 233 393 8 -3 12 -8 10 -11 -3 -3 -1 -11 5 -18 8 -10 -5
-42 -50 -127 -53 -99 -59 -116 -46 -127 8 -7 15 -9 15 -5 0 5 2 6 5 3 4 -3
-37 -85 -89 -183 -53 -97 -101 -192 -108 -211 l-12 -34 -166 2 -165 2 152 3
152 4 97 189 c54 104 100 187 104 185 3 -2 6 8 6 21 3 37 -9 29 -31 -21 -11
-25 -24 -45 -28 -45 -5 0 -6 -4 -3 -9 4 -5 3 -11 -1 -13 -5 -1 -32 -50 -62
-108 -30 -58 -64 -123 -75 -145 l-21 -40 -105 -3 c-58 -2 -124 0 -146 3 -38 5
-44 10 -63 53 -31 70 -92 176 -105 184 -6 4 -8 8 -3 8 11 0 -42 100 -53 100
-6 0 -9 3 -8 8 4 14 -13 52 -23 52 -6 0 -7 5 -4 10 3 6 1 10 -5 10 -6 0 -9 3
-7 8 7 11 -49 113 -57 105 -4 -4 -4 -1 -1 8 3 8 -3 24 -13 35 -24 25 -27 113
-4 110 8 -2 24 -20 36 -42z m-26 -221 c18 -30 27 -55 21 -58 -5 -4 -9 -12 -7
-18 1 -7 -1 -22 -6 -34 -14 -43 57 -118 79 -83 3 6 -3 10 -14 10 -23 0 -41 22
-23 28 21 7 13 20 -8 15 -13 -4 -20 0 -20 10 0 17 26 41 33 30 3 -4 33 -61 67
-126 42 -81 56 -115 43 -108 -10 5 -27 12 -38 16 -19 6 -19 7 -2 19 23 18 22
29 -4 21 -19 -6 -20 -4 -14 27 7 32 6 32 -11 15 -16 -15 -17 -21 -6 -49 19
-52 -1 -21 -81 122 -55 98 -73 138 -66 147 9 10 16 9 35 -4 14 -9 24 -11 24
-4 0 6 -13 17 -29 25 -22 12 -31 12 -41 3 -8 -7 -3 2 11 19 13 17 25 31 25 30
1 0 16 -24 32 -53z m858 -131 c-3 -6 -15 -8 -26 -5 -16 4 -18 9 -9 25 10 18
13 19 26 5 9 -8 13 -20 9 -25z m-721 -5 c4 4 5 2 1 -5 -4 -7 2 -28 13 -48 12
-20 18 -40 15 -46 -4 -6 -3 -8 3 -5 12 7 36 -40 28 -54 -4 -5 -1 -9 4 -9 15 0
69 -112 63 -129 -3 -8 0 -11 6 -7 6 3 13 2 17 -4 3 -5 0 -10 -9 -10 -18 0
-190 326 -180 342 4 7 11 3 18 -11 7 -12 16 -18 21 -14z m45 -228 l25 -19 -36
0 c-27 0 -41 6 -52 23 -14 22 -14 23 12 19 15 -2 38 -12 51 -23z"/>
<path d="M504 1045 c14 -11 16 -15 5 -15 -12 0 -12 -2 1 -10 8 -5 20 -10 25
-10 6 0 3 5 -5 10 -11 7 -12 10 -2 10 10 0 10 3 -2 15 -8 8 -21 15 -28 15 -8
-1 -6 -6 6 -15z"/>
<path d="M760 1050 c0 -5 4 -10 9 -10 6 0 13 5 16 10 3 6 -1 10 -9 10 -9 0
-16 -4 -16 -10z"/>
<path d="M808 983 c6 -2 18 -2 25 0 6 3 1 5 -13 5 -14 0 -19 -2 -12 -5z"/>
<path d="M1047 1085 c-8 -18 -67 -20 -87 -2 -12 10 -12 9 -1 -5 17 -22 74 -24
91 -3 7 9 11 18 8 21 -3 3 -8 -2 -11 -11z"/>
<path d="M275 908 c-41 -62 -45 -89 -12 -87 16 1 18 2 5 6 -24 6 -23 18 10 67
39 58 44 66 38 66 -3 0 -21 -24 -41 -52z"/>
<path d="M314 839 c14 -11 26 -28 27 -37 0 -10 3 -12 5 -5 7 17 -25 63 -43 63
-11 0 -7 -7 11 -21z"/>
<path d="M955 850 c-3 -6 1 -7 9 -4 18 7 21 14 7 14 -6 0 -13 -4 -16 -10z"/>
<path d="M930 815 c-7 -8 -10 -15 -6 -15 3 0 -7 -27 -24 -60 -17 -33 -28 -60
-25 -60 5 0 51 87 65 126 11 28 8 30 -10 9z"/>
<path d="M380 779 c0 -13 39 -79 46 -79 2 0 -5 18 -16 40 l-20 40 64 0 c36 0
68 -4 71 -10 3 -6 52 -10 110 -10 58 0 107 4 110 10 3 6 38 10 76 10 l70 0
-16 -30 c-9 -16 -13 -30 -11 -30 6 0 36 55 36 65 0 10 -149 5 -155 -5 -3 -6
-50 -10 -105 -10 -55 0 -102 4 -105 10 -9 14 -155 13 -155 -1z"/>
<path d="M390 704 c0 -6 7 -19 16 -30 14 -18 14 -18 3 6 -14 31 -19 36 -19 24z"/>
<path d="M446 656 c3 -9 13 -16 22 -16 8 0 13 1 11 3 -2 1 -12 9 -22 16 -15
12 -17 12 -11 -3z"/>
<path d="M820 655 c-7 -9 -8 -15 -2 -15 5 0 12 7 16 15 3 8 4 15 2 15 -2 0 -9
-7 -16 -15z"/>
<path d="M490 636 c0 -11 30 -66 36 -66 2 0 -3 15 -12 33 -19 36 -24 44 -24
33z"/>
<path d="M821 595 c-11 -19 -17 -36 -13 -39 4 -2 15 13 24 35 20 48 16 50 -11
4z"/>
<path d="M731 541 c-22 -43 -41 -84 -41 -90 0 -7 20 27 45 75 25 48 43 89 41
91 -2 2 -22 -32 -45 -76z"/>
<path d="M425 551 l-30 -7 26 -5 c14 -3 30 0 37 8 14 14 12 14 -33 4z"/>
<path d="M430 511 c0 -6 4 -13 10 -16 6 -3 7 1 4 9 -7 18 -14 21 -14 7z"/>
<path d="M570 483 c6 -13 8 -35 5 -50 -4 -23 -4 -24 4 -8 14 29 13 39 -5 61
-15 18 -15 18 -4 -3z"/>
<path d="M825 489 c-4 -6 -5 -12 -2 -15 2 -3 7 2 10 11 7 17 1 20 -8 4z"/>
<path d="M471 442 c-7 -13 0 -32 26 -77 20 -33 47 -84 60 -112 29 -61 48 -67
57 -18 6 32 -9 84 -21 72 -2 -3 0 -14 6 -25 11 -20 6 -52 -8 -52 -8 0 -101
181 -101 198 0 31 30 7 59 -48 45 -83 49 -75 6 10 -37 73 -64 90 -84 52z"/>
<path d="M710 365 c-44 -81 -50 -99 -44 -130 8 -47 27 -44 50 7 10 23 37 74
60 114 43 75 44 104 4 104 -13 0 -33 -27 -70 -95z m80 59 c0 -11 -82 -175 -97
-194 -5 -6 -23 21 -23 35 0 6 23 49 51 98 46 79 69 100 69 61z"/>
<path d="M659 338 c-17 -33 -18 -33 -34 -12 -13 18 -14 18 -8 -3 8 -32 30 -29
48 7 9 17 13 30 11 30 -3 0 -11 -10 -17 -22z"/>
<path d="M559 1124 l-24 -26 24 -19 c17 -14 39 -19 80 -19 48 0 61 4 81 25 23
24 23 25 5 45 -10 11 -23 20 -28 20 -6 0 -1 -10 11 -23 31 -33 12 -47 -64 -47
-74 0 -98 18 -69 50 27 30 12 24 -16 -6z"/>
<path d="M660 1120 c-8 -5 -28 -10 -43 -10 -16 0 -26 -4 -22 -10 3 -5 21 -10
38 -10 40 0 66 15 52 29 -7 7 -16 7 -25 1z"/>
<path d="M313 1094 c2 -15 -6 -20 -31 -22 -18 -2 -41 3 -50 10 -15 12 -16 11
-3 -4 8 -11 27 -18 46 -18 37 0 65 24 48 41 -8 8 -11 6 -10 -7z"/>
<path d="M1056 967 c3 -10 9 -15 12 -12 3 3 0 11 -7 18 -10 9 -11 8 -5 -6z"/>
<path d="M1120 628 c0 -6 10 -23 23 -37 12 -14 15 -20 7 -14 -12 9 -23 7 -48
-9 -18 -11 -31 -23 -28 -25 2 -3 16 3 31 13 23 15 28 15 35 3 6 -9 -1 -32 -22
-69 -17 -30 -62 -109 -99 -175 -65 -116 -68 -120 -105 -126 l-39 -6 46 -2 c43
-1 46 1 62 35 10 19 21 32 27 29 10 -6 45 53 36 62 -8 9 34 84 44 78 10 -6 45
54 36 63 -3 3 -6 1 -6 -4 0 -6 -7 -19 -16 -30 -15 -19 -15 -19 -5 1 5 11 25
47 45 79 42 70 45 94 13 124 -26 25 -37 28 -37 10z m-92 -353 c-6 -14 -13 -23
-15 -21 -5 5 15 46 22 46 3 0 -1 -11 -7 -25z"/>
<path d="M337 150 c10 -11 19 -20 21 -20 1 0 -2 9 -8 20 -6 11 -15 20 -20 20
-6 0 -2 -9 7 -20z"/>
<path d="M376 155 c-3 -8 -2 -22 1 -32 4 -11 3 -14 -5 -9 -7 4 -12 2 -12 -3 0
-6 7 -11 15 -11 10 0 15 11 15 35 0 38 -4 44 -14 20z"/>
<path d="M933 158 c-15 -18 -35 -58 -29 -58 2 0 13 16 25 35 20 35 22 46 4 23z"/>
<path d="M890 150 c0 -5 5 -10 11 -10 5 0 7 5 4 10 -3 6 -8 10 -11 10 -2 0 -4
-4 -4 -10z"/>
<path d="M885 119 c-4 -6 -5 -12 -2 -15 2 -3 7 2 10 11 7 17 1 20 -8 4z"/>
</g>
</svg>
